<svg width="1920" height="960" viewBox="0 0 1920 960" fill="none" xmlns="http://www.w3.org/2000/svg">
<g clip-path="url(#clip0_126_189)">
<rect width="1920" height="960" fill="#6A35FF"/>
<path fill-rule="evenodd" clip-rule="evenodd" d="M2164.09 25.3586C2094.94 106.523 1991.98 158 1877 158C1668.79 158 1500 -10.7886 1500 -219C1500 -251.584 1504.13 -283.202 1511.91 -313.359C1581.06 -394.523 1684.02 -446 1799 -446C2007.21 -446 2176 -277.211 2176 -69C2176 -36.4164 2171.87 -4.79828 2164.09 25.3586ZM2167.04 21.8607C2174.2 -7.24847 2178 -37.6806 2178 -69C2178 -278.316 2008.32 -448 1799 -448C1684.89 -448 1582.56 -397.569 1513.07 -317.779C1515.18 -325.548 1517.52 -333.218 1520.1 -340.78C1588.65 -434.859 1699.69 -496 1825 -496C2033.21 -496 2202 -327.211 2202 -119C2202 -76.3856 2194.93 -35.4226 2181.9 2.77991C2177.15 9.30157 2172.19 15.6649 2167.04 21.8607ZM2162.93 29.7792C2093.44 109.569 1991.11 160 1877 160C1667.68 160 1498 -9.68408 1498 -219C1498 -250.319 1501.8 -280.751 1508.96 -309.861C1503.81 -303.665 1498.85 -297.301 1494.1 -290.78C1481.07 -252.577 1474 -211.614 1474 -169C1474 39.2114 1642.79 208 1851 208C1976.31 208 2087.35 146.859 2155.9 52.7799C2158.48 45.2183 2160.82 37.5485 2162.93 29.7792ZM1510.08 -314.304C1511.92 -321.379 1513.95 -328.375 1516.17 -335.284C1512.03 -329.382 1508.06 -323.356 1504.25 -317.213C1501.43 -310.622 1498.79 -303.934 1496.34 -297.157C1500.76 -303.007 1505.34 -308.725 1510.08 -314.304ZM1522.34 -347.157C1591.52 -438.781 1701.35 -498 1825 -498C2034.32 -498 2204 -328.316 2204 -119C2204 -78.4344 2197.63 -39.3575 2185.83 -2.71558C2189.97 -8.61755 2193.94 -14.6437 2197.75 -20.7872C2217.22 -66.2819 2228 -116.382 2228 -169C2228 -377.211 2059.21 -546 1851 -546C1715.5 -546 1596.7 -474.52 1530.25 -367.213C1527.43 -360.622 1524.79 -353.934 1522.34 -347.157ZM1523.4 -355.705C1521.62 -351.084 1519.92 -346.418 1518.31 -341.711C1515.37 -337.681 1512.52 -333.591 1509.75 -329.443C1513.96 -338.395 1518.52 -347.155 1523.4 -355.705ZM1528.47 -368.137C1586.39 -503.306 1720.63 -598 1877 -598C2086.32 -598 2256 -428.316 2256 -219C2256 -145.952 2235.33 -77.7304 2199.53 -19.8635C2192.09 -2.48969 2183.38 14.2153 2173.53 30.1366C2166.09 47.5103 2157.38 64.2153 2147.53 80.1365C2089.61 215.306 1955.37 310 1799 310C1589.68 310 1420 140.316 1420 -69C1420 -142.048 1440.67 -210.27 1476.47 -268.137C1483.91 -285.51 1492.62 -302.215 1502.47 -318.137C1509.91 -335.51 1518.62 -352.215 1528.47 -368.137ZM1535.75 -379.443C1596.02 -507.42 1726.17 -596 1877 -596C2085.21 -596 2254 -427.211 2254 -219C2254 -151.072 2236.03 -87.3391 2204.6 -32.295C2221 -74.7032 2230 -120.801 2230 -169C2230 -378.316 2060.32 -548 1851 -548C1719.55 -548 1603.73 -481.077 1535.75 -379.443ZM2192.25 -8.55713C2189.48 -4.40906 2186.63 -0.318787 2183.69 3.71149C2182.08 8.41846 2180.38 13.0837 2178.6 17.7051C2183.48 9.15503 2188.04 0.395325 2192.25 -8.55713ZM2179.66 9.15662C2177.21 15.9344 2174.57 22.6219 2171.75 29.2127C2167.94 35.3563 2163.97 41.3824 2159.83 47.2844C2162.05 40.3753 2164.08 33.3795 2165.92 26.3036C2170.66 20.7247 2175.24 15.0067 2179.66 9.15662ZM1851 210C1974.65 210 2084.48 150.781 2153.66 59.1566C2151.21 65.9344 2148.57 72.6218 2145.75 79.2126C2079.3 186.52 1960.5 258 1825 258C1616.79 258 1448 89.2114 1448 -119C1448 -171.618 1458.78 -221.718 1478.25 -267.213C1482.06 -273.356 1486.03 -279.382 1490.17 -285.284C1478.37 -248.642 1472 -209.566 1472 -169C1472 40.3159 1641.68 210 1851 210ZM1497.4 -305.705C1495.62 -301.084 1493.92 -296.418 1492.31 -291.711C1489.37 -287.681 1486.52 -283.591 1483.75 -279.443C1487.96 -288.395 1492.52 -297.155 1497.4 -305.705ZM2152.6 67.705C2157.48 59.1549 2162.04 50.3953 2166.25 41.4429C2163.48 45.5909 2160.63 49.6812 2157.69 53.7115C2156.08 58.4184 2154.38 63.0836 2152.6 67.705ZM2140.25 91.4427C2072.27 193.077 1956.45 260 1825 260C1615.68 260 1446 90.3159 1446 -119C1446 -167.199 1455 -213.297 1471.4 -255.705C1439.97 -200.661 1422 -136.928 1422 -69C1422 139.211 1590.79 308 1799 308C1949.83 308 2079.98 219.42 2140.25 91.4427Z" fill="white" fill-opacity="0.1"/>
<path fill-rule="evenodd" clip-rule="evenodd" d="M398.095 1205.36C328.945 1286.52 225.984 1338 111 1338C-97.2113 1338 -266 1169.21 -266 961C-266 928.416 -261.866 896.798 -254.095 866.641C-184.945 785.477 -81.9839 734 33 734C241.211 734 410 902.789 410 1111C410 1143.58 405.866 1175.2 398.095 1205.36ZM401.039 1201.86C408.201 1172.75 412 1142.32 412 1111C412 901.684 242.316 732 33 732C-81.1116 732 -183.444 782.431 -252.927 862.221C-250.823 854.452 -248.477 846.782 -245.898 839.22C-177.348 745.141 -66.3142 684 59 684C267.211 684 436 852.789 436 1061C436 1103.61 428.93 1144.58 415.898 1182.78C411.146 1189.3 406.19 1195.66 401.039 1201.86ZM396.927 1209.78C327.445 1289.57 225.112 1340 111 1340C-98.3159 1340 -268 1170.32 -268 961C-268 929.681 -264.201 899.249 -257.039 870.139C-262.19 876.335 -267.146 882.699 -271.898 889.22C-284.93 927.423 -292 968.386 -292 1011C-292 1219.21 -123.211 1388 85 1388C210.314 1388 321.348 1326.86 389.898 1232.78C392.477 1225.22 394.823 1217.55 396.927 1209.78ZM-255.917 865.696C-254.084 858.621 -252.052 851.625 -249.827 844.716C-253.968 850.618 -257.945 856.644 -261.749 862.787C-264.57 869.378 -267.208 876.066 -269.658 882.843C-265.241 876.993 -260.658 871.275 -255.917 865.696ZM-243.658 832.843C-174.479 741.219 -64.655 682 59 682C268.316 682 438 851.684 438 1061C438 1101.57 431.627 1140.64 419.827 1177.28C423.968 1171.38 427.945 1165.36 431.749 1159.21C451.22 1113.72 462 1063.62 462 1011C462 802.789 293.211 634 85 634C-50.4953 634 -169.296 705.48 -235.749 812.787C-238.57 819.378 -241.208 826.066 -243.658 832.843ZM-242.596 824.295C-244.384 828.916 -246.084 833.582 -247.694 838.289C-250.625 842.319 -253.48 846.409 -256.254 850.557C-252.038 841.605 -247.479 832.845 -242.596 824.295ZM-237.53 811.863C-179.615 676.694 -45.3658 582 111 582C320.316 582 490 751.684 490 961C490 1034.05 469.334 1102.27 433.53 1160.14C426.086 1177.51 417.381 1194.22 407.53 1210.14C400.086 1227.51 391.381 1244.22 381.53 1260.14C323.615 1395.31 189.366 1490 33 1490C-176.316 1490 -346 1320.32 -346 1111C-346 1037.95 -325.334 969.73 -289.53 911.863C-282.086 894.49 -273.381 877.785 -263.53 861.863C-256.086 844.49 -247.381 827.785 -237.53 811.863ZM-230.254 800.557C-169.98 672.58 -39.8343 584 111 584C319.211 584 488 752.789 488 961C488 1028.93 470.035 1092.66 438.596 1147.71C455.003 1105.3 464 1059.2 464 1011C464 801.684 294.316 632 85 632C-46.4528 632 -162.275 698.923 -230.254 800.557ZM426.254 1171.44C423.479 1175.59 420.625 1179.68 417.694 1183.71C416.084 1188.42 414.384 1193.08 412.596 1197.71C417.479 1189.16 422.038 1180.4 426.254 1171.44ZM413.658 1189.16C411.208 1195.93 408.57 1202.62 405.749 1209.21C401.945 1215.36 397.968 1221.38 393.827 1227.28C396.052 1220.38 398.084 1213.38 399.917 1206.3C404.658 1200.72 409.241 1195.01 413.658 1189.16ZM85 1390C208.655 1390 318.479 1330.78 387.658 1239.16C385.208 1245.93 382.57 1252.62 379.749 1259.21C313.295 1366.52 194.495 1438 59 1438C-149.211 1438 -318 1269.21 -318 1061C-318 1008.38 -307.22 958.282 -287.749 912.787C-283.945 906.644 -279.968 900.618 -275.827 894.716C-287.627 931.358 -294 970.434 -294 1011C-294 1220.32 -124.316 1390 85 1390ZM-268.596 874.295C-270.384 878.916 -272.084 883.582 -273.694 888.289C-276.625 892.319 -279.48 896.409 -282.254 900.557C-278.038 891.605 -273.479 882.845 -268.596 874.295ZM386.596 1247.7C391.479 1239.15 396.038 1230.4 400.254 1221.44C397.479 1225.59 394.625 1229.68 391.694 1233.71C390.084 1238.42 388.384 1243.08 386.596 1247.7ZM374.254 1271.44C306.275 1373.08 190.453 1440 59 1440C-150.316 1440 -320 1270.32 -320 1061C-320 1012.8 -311.003 966.703 -294.596 924.295C-326.035 979.339 -344 1043.07 -344 1111C-344 1319.21 -175.211 1488 33 1488C183.834 1488 313.98 1399.42 374.254 1271.44Z" fill="white" fill-opacity="0.1"/>
<path fill-rule="evenodd" clip-rule="evenodd" d="M63.7471 158.303L184.128 36.9164L27.013 102.909L25.0407 98.2136L182.294 32.1626H12V27.0698H182.285L24.793 -38.3661L26.7471 -43.0692L184.219 22.3584L63.7471 -99.1195L67.3632 -102.706L187.664 18.6001L122.238 -139.818L126.945 -141.762L192.435 16.8107V-155H197.528V16.6573L262.314 -142.006L267.029 -140.08L202.196 18.697L322.593 -102.706L326.21 -99.1195L205.81 22.2852L362.965 -43.7241L364.937 -39.0286L207.571 27.0698H378V32.1626H207.816L365.176 97.544L363.222 102.247L205.72 36.807L326.21 158.303L322.593 161.889L202.225 40.5152L267.679 199L262.972 200.945L197.528 42.4837V214.18H192.435V42.6021L127.658 201.242L122.944 199.317L187.825 40.4211L67.3632 161.889L63.7471 158.303Z" fill="white"/>
<rect x="-123.775" y="771.839" width="802.16" height="686" transform="rotate(-15 -123.775 771.839)" stroke="black" stroke-width="2"/>
<path d="M1340.52 389.947C1316.49 381.896 1316.09 372.391 1320.12 342.474L1327.04 295L1314.44 341.279C1306.63 372.443 1298.77 378.208 1276.97 376.805L1250 373.897L1275.63 381.688C1297.97 388.856 1301.46 398.932 1296.93 429.837L1289.12 477L1301.21 430.252C1309.97 397.114 1316.78 393.323 1339.53 395.451L1366 398.102L1340.52 389.947Z" fill="white" stroke="#0D0D0D" stroke-width="2" stroke-linecap="round" stroke-linejoin="round"/>
<rect x="640.174" y="554.323" width="18.4943" height="18.4943" transform="rotate(-15.0348 640.174 554.323)" fill="#FFF066" stroke="black" stroke-width="2"/>
<path d="M199.44 495.509C213.587 492.228 232.314 480.844 230.937 461.275L243.096 458.658L248.61 442.663L228.343 446.816C227.532 443.696 226.069 440.792 224.052 438.31C222.036 435.827 219.516 433.824 216.669 432.441L235.476 428.62L241.03 412L162.148 428.62L157 444.947L180.106 440.127C200.86 435.723 209.25 445.778 210.629 450.348L169.526 459.239L164.419 474.944L212.818 464.89C215.087 478.85 198.225 482.049 185.618 485.455L174.187 488.406L178.727 499.83L236.733 542L257 537.513C237.382 522.931 219.1 510.217 199.44 495.509Z" fill="#FF426F" stroke="black" stroke-linecap="round" stroke-linejoin="round"/>
<path d="M1716 191.537L1726.87 213.299L1749.63 215.503L1738.77 193.741L1716 191.537Z" fill="#3CBF77" stroke="black" stroke-width="0.8" stroke-linecap="round" stroke-linejoin="round"/>
<path d="M1727.9 172L1750.66 174.204L1738.77 193.742L1716 191.537L1727.9 172Z" fill="white" stroke="black" stroke-width="0.8" stroke-linecap="round" stroke-linejoin="round"/>
<path d="M1749.63 215.503L1761.53 195.946L1750.66 174.204L1738.77 193.742L1749.63 215.503Z" fill="#4FE3A3" stroke="black" stroke-width="0.8" stroke-linecap="round" stroke-linejoin="round"/>
<path d="M240 617.537L250.867 639.299L273.632 641.503L262.765 619.741L240 617.537Z" fill="#144CC7" stroke="black" stroke-width="0.8" stroke-linecap="round" stroke-linejoin="round"/>
<path d="M251.897 598L274.663 600.204L262.765 619.742L240 617.537L251.897 598Z" fill="white" stroke="black" stroke-width="0.8" stroke-linecap="round" stroke-linejoin="round"/>
<path d="M273.633 641.503L285.531 621.946L274.663 600.204L262.766 619.742L273.633 641.503Z" fill="#3F6FD9" stroke="black" stroke-width="0.8" stroke-linecap="round" stroke-linejoin="round"/>
<path d="M533.001 834.846C533.001 843.812 536.561 852.412 542.899 858.754C549.237 865.096 557.834 868.66 566.8 868.666C568.684 868.67 570.564 868.508 572.42 868.186C579.482 866.998 585.986 863.598 590.994 858.476C596 853.354 599.253 846.774 600.281 839.686C600.421 838.666 600.521 837.686 600.58 836.566C600.58 835.986 600.58 835.406 600.58 834.846C600.59 827.366 598.119 820.092 593.553 814.168C588.987 808.242 582.583 804 575.347 802.104C568.111 800.208 560.451 800.766 553.565 803.69C546.679 806.616 540.958 811.742 537.3 818.266C534.45 823.326 532.969 829.04 533.001 834.846Z" fill="#B38E30" stroke="black" stroke-width="0.8" stroke-linecap="round" stroke-linejoin="round"/>
<path d="M536.981 823.086C536.975 830.566 539.449 837.836 544.017 843.76C548.583 849.684 554.985 853.928 562.221 855.824C569.457 857.722 577.117 857.168 584.003 854.248C590.891 851.328 596.615 846.206 600.281 839.686C600.505 838.082 600.619 836.466 600.621 834.846C600.631 827.366 598.159 820.092 593.593 814.168C589.027 808.242 582.623 804 575.387 802.104C568.151 800.208 560.491 800.766 553.605 803.69C546.719 806.616 540.999 811.742 537.341 818.266C537.099 819.862 536.977 821.472 536.981 823.086Z" fill="#FFCB45" stroke="black" stroke-width="0.8" stroke-linecap="round" stroke-linejoin="round"/>
<path d="M585.241 817.045C586.465 814.509 583.629 810.603 578.905 808.319C574.181 806.037 569.359 806.243 568.133 808.779C566.907 811.315 569.743 815.221 574.467 817.503C579.191 819.787 584.015 819.581 585.241 817.045Z" fill="white" stroke="black" stroke-width="0.8" stroke-linecap="round" stroke-linejoin="round"/>
<path fill-rule="evenodd" clip-rule="evenodd" d="M2064.12 1526.33L2497.77 491.523L2499.62 492.296L2065.97 1527.11L2064.12 1526.33ZM1642.57 1228.24L1599.29 1331.54L1601.13 1332.31L1644.42 1229.01L1797.52 1293.17L1754.23 1396.47L1756.08 1397.24L1799.36 1293.95L1952.46 1358.1L1909.18 1461.4L1911.02 1462.17L1954.31 1358.88L2057.6 1402.17L2058.38 1400.32L1955.08 1357.03L2019.24 1203.93L2122.54 1247.22L2123.31 1245.38L2020.01 1202.09L2084.17 1048.99L2187.47 1092.28L2188.24 1090.43L2084.95 1047.14L2149.1 894.043L2252.4 937.331L2253.17 935.487L2149.88 892.199L2214.04 739.099L2317.33 782.387L2318.11 780.542L2214.81 737.254L2278.97 584.154L2382.26 627.442L2383.04 625.597L2279.74 582.309L2343.9 429.209L2447.2 472.497L2447.97 470.653L2344.67 427.365L2344.67 427.365L2342.83 426.592L2342.83 426.592L2189.73 362.433L2187.88 361.66L2034.78 297.501L2034.78 297.501L2032.94 296.728L2032.94 296.728L1879.84 232.569L1877.99 231.796L1724.89 167.637L1723.05 166.864L1569.95 102.705L1568.11 101.932L1415.01 37.773L1413.16 37.0001L1413.16 37.0001L1413.16 37L1023.57 966.668L1022.8 968.513L979.508 1071.81L981.352 1072.58L1024.64 969.286L1177.74 1033.44L1134.45 1136.74L1136.3 1137.51L1179.59 1034.22L1332.69 1098.38L1289.4 1201.67L1291.24 1202.45L1334.53 1099.15L1487.63 1163.31L1444.34 1266.6L1446.19 1267.38L1489.47 1164.08L1642.57 1228.24ZM1645.19 1227.17L1798.29 1291.33L1862.45 1138.23L1709.35 1074.07L1645.19 1227.17ZM1707.51 1073.3L1643.35 1226.4L1490.25 1162.24L1554.41 1009.14L1707.51 1073.3ZM1710.12 1072.22L1863.22 1136.38L1927.38 983.283L1774.28 919.124L1710.12 1072.22ZM1772.44 918.351L1708.28 1071.45L1555.18 1007.29L1619.34 854.192L1772.44 918.351ZM1773.21 916.506L1837.37 763.406L1684.27 699.247L1620.11 852.348L1773.21 916.506ZM1775.06 917.279L1839.21 764.179L1992.31 828.338L1928.16 981.438L1775.06 917.279ZM1930 982.211L1994.16 829.111L2147.26 893.27L2083.1 1046.37L1930 982.211ZM1929.23 984.056L1865.07 1137.16L2018.17 1201.31L2082.33 1048.21L1929.23 984.056ZM2017.4 1203.16L1864.3 1139L1800.14 1292.1L1953.24 1356.26L2017.4 1203.16ZM2148.03 891.426L2212.19 738.326L2059.09 674.167L1994.93 827.267L2148.03 891.426ZM1993.09 826.494L2057.25 673.394L1904.15 609.235L1839.99 762.335L1993.09 826.494ZM1838.14 761.562L1902.3 608.462L1749.2 544.303L1685.04 697.403L1838.14 761.562ZM1683.2 696.63L1747.36 543.53L1594.26 479.371L1530.1 632.471L1683.2 696.63ZM1529.33 634.316L1465.17 787.416L1618.27 851.575L1682.43 698.474L1529.33 634.316ZM1527.48 633.543L1463.32 786.643L1310.22 722.484L1374.38 569.384L1527.48 633.543ZM1528.25 631.698L1592.41 478.598L1439.31 414.439L1375.15 567.539L1528.25 631.698ZM1373.31 566.766L1437.47 413.666L1284.37 349.507L1220.21 502.607L1373.31 566.766ZM1219.44 504.452L1155.28 657.552L1308.38 721.711L1372.54 568.611L1219.44 504.452ZM1307.6 723.555L1154.5 659.396L1090.35 812.496L1243.45 876.655L1307.6 723.555ZM1242.67 878.5L1089.57 814.341L1025.41 967.441L1178.51 1031.6L1242.67 878.5ZM1180.36 1032.37L1244.52 879.273L1397.62 943.432L1333.46 1096.53L1180.36 1032.37ZM1335.3 1097.3L1488.4 1161.46L1552.56 1008.36L1399.46 944.205L1335.3 1097.3ZM1400.23 942.36L1553.33 1006.52L1617.49 853.419L1464.39 789.26L1400.23 942.36ZM1462.55 788.487L1309.45 724.328L1245.29 877.428L1398.39 941.587L1462.55 788.487ZM1285.14 347.662L1438.24 411.821L1502.4 258.721L1349.3 194.562L1285.14 347.662ZM1350.07 192.718L1503.17 256.877L1567.33 103.777L1414.23 39.6176L1350.07 192.718ZM1569.18 104.55L1505.02 257.65L1658.12 321.809L1722.28 168.709L1569.18 104.55ZM1724.12 169.482L1659.96 322.582L1813.06 386.741L1877.22 233.64L1724.12 169.482ZM1879.07 234.413L1814.91 387.514L1968.01 451.673L2032.17 298.572L1879.07 234.413ZM2034.01 299.345L1969.85 452.446L2122.95 516.604L2187.11 363.504L2034.01 299.345ZM2188.96 364.277L2124.8 517.377L2277.9 581.536L2342.06 428.436L2188.96 364.277ZM2277.12 583.381L2124.02 519.222L2059.86 672.322L2212.96 736.481L2277.12 583.381ZM2058.02 671.549L2122.18 518.449L1969.08 454.29L1904.92 607.39L2058.02 671.549ZM1903.08 606.617L1967.23 453.517L1814.13 389.358L1749.98 542.458L1903.08 606.617ZM1748.13 541.685L1812.29 388.585L1659.19 324.426L1595.03 477.526L1748.13 541.685ZM1593.19 476.753L1657.34 323.653L1504.24 259.494L1440.09 412.594L1593.19 476.753ZM2652.72 556.455L2219.07 1591.26L2220.91 1592.04L2654.56 557.228L2652.72 556.455ZM2374.01 1656.2L2807.66 621.387L2809.51 622.16L2375.85 1656.97L2374.01 1656.2ZM958.637 1121.61L1993.45 1555.27L1992.67 1557.11L957.864 1123.46L958.637 1121.61ZM1928.51 1710.21L893.705 1276.56L892.932 1278.4L1927.74 1712.05L1928.51 1710.21ZM828.773 1431.5L1863.58 1865.15L1862.81 1867L828 1433.35L828.773 1431.5Z" fill="black"/>
<path d="M1844.76 893.675L1719.9 856.636L1814.18 767.87L1691.1 796.798L1728.78 675.243L1634.09 763.524L1604.66 638.317L1567.49 760.769L1478.58 667.734L1508.06 793.147L1385.53 756.14L1472.12 848.27L1347.87 877.473L1472.51 914.783L1378.46 1003.28L1501.74 974.301L1463.86 1095.91L1558.59 1008.12L1587.92 1132.92L1626.41 1011.46L1713.99 1103.43L1684.62 978.498L1809.6 1016.96L1720.73 922.829L1844.76 893.675Z" fill="#FFCB45" stroke="#0D0D0D" stroke-width="2" stroke-linejoin="round"/>
<path d="M857.055 838.324L857.445 843.576C858.7 860.455 868.091 875.667 882.618 884.352L887.139 887.055L881.886 887.445C865.008 888.7 849.796 898.091 841.111 912.618L838.408 917.139L838.017 911.887C836.762 895.008 827.371 879.796 812.844 871.111L808.324 868.408L813.576 868.017C830.455 866.762 845.667 857.371 854.352 842.844L857.055 838.324Z" fill="#121212"/>
<path d="M690.673 770.471L691.538 772.049C696.543 781.183 705.68 787.31 716.031 788.473L717.818 788.673L716.241 789.538C707.106 794.543 700.979 803.68 699.817 814.03L699.616 815.818L698.752 814.24C693.747 805.106 684.61 798.979 674.259 797.817L672.471 797.616L674.049 796.752C683.183 791.747 689.31 782.61 690.473 772.259L690.673 770.471Z" fill="white"/>
<path d="M125.673 849.471L126.289 850.594C131.45 860.014 140.873 866.332 151.546 867.531L152.818 867.674L151.696 868.289C142.276 873.45 135.958 882.873 134.759 893.546L134.616 894.818L134.001 893.696C128.84 884.276 119.417 877.958 108.743 876.759L107.471 876.616L108.594 876.001C118.014 870.84 124.332 861.417 125.531 850.743L125.673 849.471Z" fill="white"/>
<path d="M490.215 93.8133L550.64 44.5803L563.065 121.526L490.215 93.8133Z" stroke="black" stroke-width="2"/>
<path d="M17.8313 694.524L12.945 643.347L59.7092 664.704L17.8313 694.524Z" stroke="white" stroke-width="2"/>
<circle cx="1251" cy="25" r="70" stroke="black" stroke-width="2"/>
<circle cx="1343" cy="-39" r="70" stroke="white" stroke-width="2"/>
<path d="M1157.96 870.339L1115.98 828L1074 870.339L1115.98 912.678L1157.96 870.339Z" fill="#7595FF"/>
<path d="M1865.6 580.339L1837.98 552.488L1810.36 580.339L1837.98 608.191L1865.6 580.339Z" fill="#FF426F"/>
<path d="M867.961 0.339209L825.98 -42L784 0.339209L825.98 42.6784L867.961 0.339209Z" fill="#FF784B"/>
<path d="M1493.87 608C1495.01 606.36 1489.27 600.322 1481.04 594.515C1472.81 588.708 1465.21 585.33 1464.07 586.97C1462.93 588.61 1468.67 594.647 1476.9 600.454C1485.13 606.262 1492.73 609.64 1493.87 608Z" fill="white" stroke="#0D0D0D" stroke-width="0.658794" stroke-linecap="round" stroke-linejoin="round"/>
<path d="M476.554 419.725C476.554 417.727 472.848 416.083 468.277 416.053C463.706 416.024 460 417.62 460 419.618C460 421.616 463.706 423.26 468.277 423.289C472.848 423.319 476.554 421.723 476.554 419.725Z" fill="white" stroke="#0D0D0D" stroke-width="0.658794" stroke-linecap="round" stroke-linejoin="round"/>
<path d="M533.593 362.514C534.734 360.874 521.659 349.665 504.389 337.479C487.119 325.294 472.193 316.745 471.052 318.385C469.91 320.025 482.985 331.233 500.255 343.419C517.526 355.605 532.451 364.154 533.593 362.514Z" stroke="white" stroke-width="0.658794" stroke-linecap="round" stroke-linejoin="round"/>
<path d="M640.391 102.871C642.2 102.021 638.926 91.0716 633.08 78.4144C627.233 65.7571 621.027 56.1851 619.219 57.0348C617.41 57.8844 620.683 68.8339 626.53 81.4911C632.377 94.1484 638.583 103.72 640.391 102.871Z" fill="white" stroke="#0D0D0D" stroke-width="0.658794" stroke-linecap="round" stroke-linejoin="round"/>
<line x1="570.678" y1="570.735" x2="390.678" y2="736.735" stroke="white" stroke-opacity="0.1" stroke-width="2"/>
<line x1="1322.54" y1="549.16" x2="1576.54" y2="713.16" stroke="white" stroke-opacity="0.1" stroke-width="2"/>
<line x1="1349.49" y1="363.138" x2="1693.49" y2="161.138" stroke="white" stroke-opacity="0.1" stroke-width="2"/>
<line x1="1131.17" y1="339.441" x2="1467.17" y2="-158.559" stroke="white" stroke-opacity="0.1" stroke-width="2"/>
<line y1="-1" x2="563.028" y2="-1" transform="matrix(-0.550595 -0.834773 -0.834773 0.550595 596 294)" stroke="white" stroke-opacity="0.1" stroke-width="2"/>
<line x1="742.094" y1="292.902" x2="713.026" y2="168.227" stroke="white" stroke-opacity="0.1" stroke-width="2"/>
<line x1="490.727" y1="490.978" x2="370.211" y2="516.978" stroke="white" stroke-opacity="0.1" stroke-width="2"/>
<line x1="1431.38" y1="453.019" x2="1615.38" y2="489.019" stroke="white" stroke-opacity="0.1" stroke-width="2"/>
<line x1="1410.5" y1="519.136" x2="1467.69" y2="552.489" stroke="white" stroke-opacity="0.1" stroke-width="2"/>
<line x1="939.036" y1="359.733" x2="1015.04" y2="85.7327" stroke="white" stroke-opacity="0.1" stroke-width="2"/>
<line x1="1046.81" y1="609.418" x2="1342.81" y2="1023.42" stroke="white" stroke-opacity="0.1" stroke-width="2"/>
<line y1="-1" x2="508.932" y2="-1" transform="matrix(-0.58161 0.813468 0.813468 0.58161 734 610)" stroke="white" stroke-opacity="0.1" stroke-width="2"/>
<line x1="906.998" y1="647.938" x2="926.998" y2="967.938" stroke="white" stroke-opacity="0.1" stroke-width="2"/>
<path d="M1459.95 419.394C1460.98 414.835 1461.11 410.119 1460.33 405.515C1459.55 400.912 1457.87 396.511 1455.4 392.564C1452.93 388.618 1449.71 385.202 1445.92 382.513C1442.14 379.824 1437.86 377.914 1433.33 376.892C1428.81 375.87 1424.12 375.756 1419.55 376.556C1414.97 377.357 1410.6 379.056 1406.67 381.558C1402.74 384.059 1399.34 387.313 1396.66 391.134C1393.97 394.956 1392.06 399.269 1391.03 403.828L1393.02 404.277C1393.99 399.981 1395.79 395.916 1398.32 392.315C1400.85 388.714 1404.05 385.647 1407.76 383.29C1411.46 380.933 1415.58 379.332 1419.89 378.577C1424.2 377.823 1428.62 377.931 1432.88 378.894C1437.15 379.857 1441.18 381.657 1444.75 384.191C1448.31 386.725 1451.35 389.943 1453.68 393.663C1456.01 397.382 1457.58 401.529 1458.32 405.867C1459.06 410.205 1458.93 414.649 1457.96 418.945L1459.95 419.394Z" fill="white" fill-opacity="0.1"/>
<path d="M802.887 285.599C807.804 283.139 812.187 279.736 815.788 275.583C819.389 271.43 822.137 266.608 823.875 261.393C825.612 256.178 826.305 250.671 825.915 245.188C825.524 239.705 824.058 234.353 821.599 229.437L820.762 229.855C823.167 234.661 824.6 239.894 824.982 245.255C825.364 250.615 824.686 255.999 822.988 261.097C821.289 266.196 818.603 270.91 815.082 274.971C811.562 279.031 807.276 282.358 802.469 284.762L802.887 285.599Z" fill="#E0E0E0" fill-opacity="0.3"/>
<path d="M397.548 449.337C395.076 444.427 391.661 440.053 387.498 436.463C383.336 432.873 378.506 430.138 373.287 428.414C368.067 426.691 362.559 426.012 357.077 426.417C351.595 426.822 346.246 428.303 341.337 430.776C336.427 433.248 332.052 436.663 328.462 440.825C324.873 444.988 322.138 449.817 320.414 455.037C318.691 460.257 318.012 465.765 318.417 471.247C318.822 476.729 320.303 482.078 322.775 486.987L323.61 486.567C321.193 481.767 319.746 476.538 319.349 471.178C318.953 465.819 319.617 460.433 321.302 455.33C322.987 450.227 325.661 445.506 329.17 441.436C332.68 437.366 336.957 434.027 341.757 431.61C346.557 429.194 351.786 427.746 357.146 427.35C362.505 426.954 367.89 427.617 372.994 429.302C378.097 430.987 382.818 433.661 386.888 437.171C390.958 440.68 394.296 444.957 396.713 449.757L397.548 449.337Z" fill="white"/>
<path d="M-18.7175 371.462C-13.957 374.211 -8.70178 375.995 -3.25187 376.712C2.19805 377.43 7.73592 377.067 13.0456 375.644C18.3552 374.221 23.3326 371.767 27.6936 368.42C32.0547 365.074 35.7139 360.901 38.4623 356.141C41.2108 351.38 42.9947 346.125 43.7122 340.675C44.4297 335.225 44.0667 329.688 42.644 324.378C41.2213 319.068 38.7667 314.091 35.4204 309.73C32.0741 305.369 27.9015 301.71 23.141 298.961L22.6736 299.771C27.3278 302.458 31.4071 306.035 34.6787 310.299C37.9503 314.563 40.3501 319.429 41.741 324.62C43.132 329.811 43.4868 335.225 42.7854 340.553C42.0839 345.881 40.3398 351.019 37.6527 355.674C34.9657 360.328 31.3882 364.407 27.1245 367.679C22.8609 370.95 17.9947 373.35 12.8036 374.741C7.61255 376.132 2.19836 376.487 -3.12985 375.785C-8.45805 375.084 -13.5959 373.34 -18.2501 370.653L-18.7175 371.462Z" fill="white" fill-opacity="0.1"/>
<path d="M982.236 691.528C976.929 697.882 973.625 705.667 972.742 713.899C971.859 722.131 973.437 730.439 977.277 737.774C981.116 745.109 987.044 751.14 994.312 755.106C1001.58 759.072 1009.86 760.793 1018.1 760.053L1018.02 759.122C1009.96 759.845 1001.86 758.162 994.759 754.285C987.654 750.408 981.859 744.511 978.105 737.341C974.351 730.17 972.809 722.047 973.672 713.999C974.535 705.951 977.765 698.34 982.953 692.128L982.236 691.528Z" fill="#C4C4C4"/>
<path d="M336.737 915.625C331.387 916.889 326.339 919.194 321.88 922.409C317.422 925.624 313.64 929.686 310.751 934.363C307.862 939.039 305.922 944.239 305.043 949.665C304.163 955.091 304.361 960.637 305.625 965.987C306.889 971.337 309.194 976.385 312.409 980.844C315.624 985.302 319.686 989.084 324.362 991.973C329.039 994.862 334.239 996.802 339.665 997.681C345.091 998.561 350.637 998.363 355.987 997.099L355.772 996.189C350.542 997.425 345.119 997.618 339.814 996.759C334.51 995.899 329.426 994.002 324.854 991.178C320.282 988.353 316.311 984.656 313.168 980.297C310.024 975.938 307.771 971.002 306.535 965.772C305.299 960.542 305.106 955.119 305.965 949.815C306.825 944.51 308.722 939.426 311.546 934.854C314.371 930.282 318.068 926.311 322.427 923.168C326.786 920.024 331.722 917.771 336.952 916.535L336.737 915.625Z" fill="white" fill-opacity="0.3"/>
<path d="M799.553 698.992C792.282 714.162 784.745 727.426 778.442 736.607C775.288 741.2 772.456 744.753 770.132 747.01C768.968 748.141 767.953 748.924 767.108 749.357C766.251 749.795 765.671 749.823 765.289 749.64C764.907 749.457 764.566 748.987 764.371 748.045C764.179 747.115 764.154 745.833 764.306 744.217C764.61 740.992 765.606 736.559 767.212 731.224C770.422 720.56 776.043 706.377 783.314 691.208C790.586 676.038 798.123 662.774 804.426 653.593C807.579 648.999 810.411 645.447 812.736 643.189C813.9 642.059 814.915 641.275 815.76 640.843C816.617 640.404 817.197 640.376 817.579 640.559C817.96 640.742 818.302 641.212 818.497 642.155C818.689 643.084 818.714 644.366 818.561 645.982C818.257 649.208 817.261 653.64 815.655 658.976C812.445 669.639 806.825 683.822 799.553 698.992Z" fill="white" stroke="black"/>
<path d="M15.4165 932.894C10.8097 942.504 5.68903 950.73 1.14342 956.262C-1.13192 959.031 -3.24508 961.102 -5.06045 962.338C-6.91027 963.598 -8.29181 963.885 -9.21338 963.444C-10.135 963.002 -10.7758 961.745 -10.9526 959.514C-11.1261 957.325 -10.8348 954.38 -10.1012 950.872C-8.6356 943.864 -5.42928 934.719 -0.822504 925.109C3.78427 915.499 8.90494 907.272 13.4506 901.741C15.7259 898.972 17.8391 896.9 19.6544 895.665C21.5042 894.405 22.8858 894.117 23.8074 894.559C24.7289 895.001 25.3697 896.258 25.5466 898.489C25.7201 900.678 25.4288 903.623 24.6952 907.131C23.2296 914.139 20.0233 923.283 15.4165 932.894Z" fill="white" stroke="black"/>
<path d="M1228.5 308.395C1220.94 315.902 1213.35 321.934 1207.22 325.62C1204.14 327.465 1201.46 328.707 1199.33 329.262C1197.17 329.827 1195.77 329.635 1195.05 328.91C1194.33 328.184 1194.15 326.785 1194.73 324.624C1195.3 322.504 1196.56 319.827 1198.43 316.769C1202.16 310.659 1208.25 303.12 1215.82 295.613C1223.38 288.106 1230.96 282.074 1237.1 278.388C1240.18 276.543 1242.86 275.301 1244.99 274.746C1247.15 274.18 1248.55 274.373 1249.27 275.098C1249.99 275.823 1250.17 277.223 1249.59 279.384C1249.02 281.504 1247.76 284.18 1245.89 287.239C1242.16 293.349 1236.07 300.887 1228.5 308.395Z" fill="white" stroke="black"/>
<path d="M1209.31 619.345C1213.62 624.006 1216.72 628.925 1218.28 633.095C1219.06 635.181 1219.43 637.056 1219.4 638.603C1219.36 640.149 1218.91 641.325 1218.08 642.096C1217.24 642.866 1216.03 643.222 1214.49 643.138C1212.94 643.054 1211.11 642.529 1209.09 641.59C1205.05 639.713 1200.39 636.229 1196.08 631.568C1191.78 626.908 1188.67 621.989 1187.12 617.819C1186.34 615.733 1185.96 613.858 1186 612.31C1186.04 610.765 1186.49 609.589 1187.32 608.818C1188.15 608.048 1189.36 607.692 1190.9 607.776C1192.45 607.86 1194.29 608.385 1196.31 609.324C1200.34 611.2 1205 614.685 1209.31 619.345Z" stroke="white"/>
<path d="M487.954 570.002C487.691 570.014 487.434 570.086 487.203 570.213L451.4 580.095L453.073 593.811L488.79 576.807C490.162 576.742 491.089 575.154 490.861 573.27C490.632 571.386 489.332 569.936 487.954 570.002Z" fill="white" stroke="#0D0D0D" stroke-width="0.658794" stroke-linecap="round" stroke-linejoin="round"/>
<path d="M453.668 593.756C456.355 593.192 457.907 589.697 457.134 585.949C456.36 582.202 453.554 579.622 450.867 580.186C448.179 580.751 446.627 584.246 447.401 587.993C448.174 591.74 450.98 594.321 453.668 593.756Z" fill="white" stroke="#0D0D0D" stroke-width="0.658794" stroke-linecap="round" stroke-linejoin="round"/>
<path d="M453.257 591.77C455.158 591.371 456.254 588.899 455.707 586.249C455.16 583.599 453.177 581.774 451.276 582.173C449.376 582.572 448.279 585.044 448.826 587.694C449.373 590.344 451.357 592.169 453.257 591.77Z" fill="#0D0D0D"/>
<path d="M1474.65 321.576C1475 321.467 1475.31 321.281 1475.57 321.032L1519.37 295.307L1512.3 277.781L1471.14 312.883C1469.35 313.455 1468.69 315.881 1469.66 318.289C1470.63 320.696 1472.86 322.151 1474.65 321.576Z" fill="white" stroke="#0D0D0D" stroke-width="0.658794" stroke-linecap="round" stroke-linejoin="round"/>
<path d="M1511.54 278.064C1508.19 279.76 1507.37 284.926 1509.72 289.603C1512.07 294.279 1516.69 296.694 1520.04 294.997C1523.39 293.3 1524.2 288.134 1521.85 283.458C1519.51 278.782 1514.89 276.367 1511.54 278.064Z" fill="white" stroke="#0D0D0D" stroke-width="0.658794" stroke-linecap="round" stroke-linejoin="round"/>
<path d="M1512.78 280.542C1510.41 281.742 1509.84 285.395 1511.5 288.702C1513.16 292.009 1516.43 293.718 1518.79 292.518C1521.16 291.318 1521.74 287.665 1520.08 284.358C1518.42 281.051 1515.15 279.343 1512.78 280.542Z" fill="#0D0D0D"/>
<path d="M920.081 139.936C920.344 139.488 920.501 138.987 920.541 138.468L942.729 68.7119L918.278 56.7207L907.943 133.997C906.576 136.333 908.2 139.573 911.558 141.222C914.916 142.871 918.707 142.283 920.081 139.936Z" fill="white" stroke="#0D0D0D" stroke-width="0.658794" stroke-linecap="round" stroke-linejoin="round"/>
<path d="M917.729 57.7623C915.77 62.8081 919.873 69.1303 926.894 71.8833C933.914 74.6364 941.194 72.7778 943.153 67.732C945.111 62.6862 941.008 56.364 933.988 53.611C926.967 50.8579 919.688 52.7166 917.729 57.7623Z" fill="white" stroke="#0D0D0D" stroke-width="0.658794" stroke-linecap="round" stroke-linejoin="round"/>
<path d="M921.451 59.2212C920.066 62.7884 922.968 67.2585 927.933 69.2056C932.898 71.1526 938.046 69.8393 939.431 66.2721C940.816 62.7049 937.913 58.2347 932.948 56.2876C927.983 54.3406 922.835 55.654 921.451 59.2212Z" fill="#0D0D0D"/>
<path d="M430.888 345.411C436.951 339.348 439.072 330.583 437.7 321.396C436.328 312.21 431.461 302.543 423.459 294.541C415.457 286.539 405.79 281.672 396.604 280.3C387.417 278.928 378.652 281.049 372.589 287.112C366.526 293.175 364.405 301.94 365.777 311.126C367.149 320.313 372.016 329.98 380.018 337.982C388.02 345.984 397.687 350.851 406.874 352.223C416.06 353.595 424.825 351.474 430.888 345.411Z" fill="#FFCB45" stroke="black" stroke-width="1.6"/>
<path d="M378.215 334.883C378.971 335.742 379.759 336.594 380.585 337.421C380.824 337.66 381.076 337.892 381.321 338.131L392.919 326.533L390.045 323.059L378.215 334.883Z" fill="white"/>
<path d="M366.33 308.942C366.963 315.845 369.662 323.148 374.299 329.87L383.598 320.571L372.846 302.426L366.33 308.942Z" fill="white"/>
<path d="M436.844 338.322C448.527 326.639 445.201 304.37 429.415 288.584C413.628 272.797 391.36 269.471 379.676 281.155C367.993 292.838 371.319 315.107 387.105 330.893C402.892 346.68 425.16 350.006 436.844 338.322Z" fill="#FFF066" stroke="black" stroke-width="1.6" stroke-miterlimit="10"/>
<path d="M431.731 333.212C441.326 323.617 438.597 305.331 425.635 292.369C412.673 279.407 394.387 276.678 384.791 286.273C375.196 295.868 377.925 314.155 390.887 327.117C403.849 340.079 422.135 342.808 431.731 333.212Z" stroke="#0D0D0D" stroke-miterlimit="10"/>
<path d="M400.666 314.021C396.908 306.653 398.581 300.847 404.98 300.725C408.842 300.647 413.446 302.92 417.088 306.478L414.763 309.029C412.6 306.82 409.855 305.49 407.44 305.542C403.307 305.619 402.332 309.087 404.806 313.943C407.259 318.76 411.715 322.125 415.854 322.041C418.27 321.996 419.651 320.588 419.535 318.373L424.391 320.782C424.443 324.411 422.222 326.813 418.334 326.89C411.922 327.02 404.405 321.356 400.666 314.021Z" fill="#FFCB45" stroke="black" stroke-miterlimit="10"/>
<path d="M410.985 297.666L394.286 297.989L394.9 292.106L411.599 291.783L410.985 297.666Z" fill="#E16A58" stroke="black" stroke-width="0.140777" stroke-miterlimit="10"/>
<path d="M410.985 297.666L394.286 297.989L394.9 292.106L411.599 291.783L410.985 297.666Z" fill="#FFCB45" stroke="black" stroke-miterlimit="10"/>
<path d="M408 342.583C414.482 344.735 420.964 345.075 426.59 343.457L440.602 307.318C438.895 302.582 436.274 297.88 432.79 293.53L408 342.583Z" fill="white"/>
<path d="M1098.92 202.858C1097.71 199.102 1095.13 195.941 1091.69 194.006C1088.25 192.072 1084.21 191.506 1080.37 192.424L1061.29 196.912L1080.09 190.896C1083.83 189.702 1086.99 187.145 1088.93 183.733C1090.88 180.321 1091.47 176.302 1090.59 172.474L1086.17 153.225L1091.98 171.853C1093.16 175.638 1095.73 178.835 1099.17 180.8C1102.62 182.765 1106.68 183.352 1110.54 182.443L1129.53 177.936L1110.83 183.953C1107.07 185.154 1103.9 187.731 1101.96 191.169C1100.02 194.607 1099.45 198.651 1100.36 202.492L1104.88 221.578L1098.92 202.858Z" fill="white"/>
<path d="M638.652 175.462L625.442 168L617.98 181.21L631.19 188.672L638.652 175.462Z" fill="#E5FE40" stroke="#3D3D3D" stroke-width="0.666486" stroke-linecap="round" stroke-linejoin="round"/>
<path d="M45.1583 419.764L32.7637 428.514L41.514 440.909L53.9086 432.158L45.1583 419.764Z" fill="#FFEB34" stroke="#3D3D3D" stroke-width="0.666486" stroke-linecap="round" stroke-linejoin="round"/>
<path d="M1377.71 758.41C1381.15 761.531 1387.58 764.37 1392.53 760.413L1395.44 763.134L1400.7 761.647L1395.91 757.075C1396.59 756.288 1397.09 755.369 1397.39 754.383C1397.68 753.396 1397.75 752.365 1397.6 751.361L1402.04 755.61L1407.47 754.02L1388.7 736.306L1383.42 737.95L1388.91 743.147C1393.85 747.802 1392.71 751.858 1391.74 753.06L1381.9 743.873L1376.8 745.413L1388.28 756.307C1384.98 759.469 1381.06 755.617 1377.86 752.924L1375 750.457L1372.79 753.75L1372.13 776.766L1377.01 781.277C1377.32 773.435 1377.37 766.286 1377.71 758.41Z" fill="#3BFFAD" stroke="black" stroke-linecap="round" stroke-linejoin="round"/>
</g>
<defs>
<clipPath id="clip0_126_189">
<rect width="1920" height="960" fill="white"/>
</clipPath>
</defs>
</svg>
