<svg width="490" height="378" viewBox="0 0 490 378" fill="none" xmlns="http://www.w3.org/2000/svg">
<path fill-rule="evenodd" clip-rule="evenodd" d="M398.095 623.359C328.945 704.523 225.984 756 111 756C-97.2113 756 -266 587.211 -266 379C-266 346.416 -261.866 314.798 -254.095 284.641C-184.945 203.477 -81.9839 152 33 152C241.211 152 410 320.789 410 529C410 561.584 405.866 593.202 398.095 623.359ZM401.039 619.861C408.201 590.752 412 560.319 412 529C412 319.684 242.316 150 33 150C-81.1116 150 -183.444 200.431 -252.927 280.221C-250.823 272.452 -248.477 264.782 -245.898 257.22C-177.348 163.141 -66.3142 102 59 102C267.211 102 436 270.789 436 479C436 521.614 428.93 562.577 415.898 600.78C411.146 607.302 406.19 613.665 401.039 619.861ZM396.927 627.779C327.445 707.569 225.112 758 111 758C-98.3159 758 -268 588.316 -268 379C-268 347.681 -264.201 317.249 -257.039 288.139C-262.19 294.335 -267.146 300.699 -271.898 307.22C-284.93 345.423 -292 386.386 -292 429C-292 637.211 -123.211 806 85 806C210.314 806 321.348 744.859 389.898 650.78C392.477 643.218 394.823 635.549 396.927 627.779ZM-255.917 283.696C-254.084 276.621 -252.052 269.625 -249.827 262.716C-253.968 268.618 -257.945 274.644 -261.749 280.787C-264.57 287.378 -267.208 294.066 -269.658 300.843C-265.241 294.993 -260.658 289.275 -255.917 283.696ZM-243.658 250.843C-174.479 159.219 -64.655 100 59 100C268.316 100 438 269.684 438 479C438 519.566 431.627 558.643 419.827 595.284C423.968 589.382 427.945 583.356 431.749 577.213C451.22 531.718 462 481.618 462 429C462 220.789 293.211 52 85 52C-50.4953 52 -169.296 123.48 -235.749 230.787C-238.57 237.378 -241.208 244.066 -243.658 250.843ZM-242.596 242.295C-244.384 246.916 -246.084 251.582 -247.694 256.289C-250.625 260.319 -253.48 264.409 -256.254 268.557C-252.038 259.605 -247.479 250.845 -242.596 242.295ZM-237.53 229.863C-179.615 94.6935 -45.3658 0 111 0C320.316 0 490 169.684 490 379C490 452.048 469.334 520.27 433.53 578.137C426.086 595.51 417.381 612.215 407.53 628.137C400.086 645.51 391.381 662.215 381.53 678.136C323.615 813.306 189.366 908 33 908C-176.316 908 -346 738.316 -346 529C-346 455.952 -325.334 387.73 -289.53 329.863C-282.086 312.49 -273.381 295.785 -263.53 279.863C-256.086 262.49 -247.381 245.785 -237.53 229.863ZM-230.254 218.557C-169.98 90.5798 -39.8343 2 111 2C319.211 2 488 170.789 488 379C488 446.928 470.035 510.661 438.596 565.705C455.003 523.297 464 477.199 464 429C464 219.684 294.316 50 85 50C-46.4528 50 -162.275 116.923 -230.254 218.557ZM426.254 589.443C423.479 593.591 420.625 597.681 417.694 601.711C416.084 606.418 414.384 611.084 412.596 615.705C417.479 607.155 422.038 598.395 426.254 589.443ZM413.658 607.157C411.208 613.934 408.57 620.622 405.749 627.213C401.945 633.356 397.968 639.382 393.827 645.284C396.052 638.375 398.084 631.38 399.917 624.304C404.658 618.725 409.241 613.007 413.658 607.157ZM85 808C208.655 808 318.479 748.781 387.658 657.157C385.208 663.934 382.57 670.622 379.749 677.213C313.295 784.52 194.495 856 59 856C-149.211 856 -318 687.211 -318 479C-318 426.382 -307.22 376.282 -287.749 330.787C-283.945 324.644 -279.968 318.618 -275.827 312.716C-287.627 349.358 -294 388.434 -294 429C-294 638.316 -124.316 808 85 808ZM-268.596 292.295C-270.384 296.916 -272.084 301.582 -273.694 306.289C-276.625 310.319 -279.48 314.409 -282.254 318.557C-278.038 309.605 -273.479 300.845 -268.596 292.295ZM386.596 665.705C391.479 657.155 396.038 648.395 400.254 639.443C397.479 643.591 394.625 647.681 391.694 651.711C390.084 656.418 388.384 661.084 386.596 665.705ZM374.254 689.443C306.275 791.077 190.453 858 59 858C-150.316 858 -320 688.316 -320 479C-320 430.801 -311.003 384.703 -294.596 342.295C-326.035 397.339 -344 461.072 -344 529C-344 737.211 -175.211 906 33 906C183.834 906 313.98 817.42 374.254 689.443Z" fill="white" fill-opacity="0.1"/>
</svg>
