<svg width="1092" height="923" viewBox="0 0 1092 923" fill="none" xmlns="http://www.w3.org/2000/svg">
<path fill-rule="evenodd" clip-rule="evenodd" d="M1236.12 1489.33L1669.77 454.523L1671.62 455.296L1237.97 1490.11L1236.12 1489.33ZM814.574 1191.24L771.286 1294.54L773.131 1295.31L816.419 1192.01L969.519 1256.17L926.231 1359.47L928.076 1360.24L971.364 1256.95L1124.46 1321.1L1081.18 1424.4L1083.02 1425.17L1126.31 1321.88L1229.6 1365.17L1230.38 1363.32L1127.08 1320.03L1191.24 1166.93L1294.54 1210.22L1295.31 1208.38L1192.01 1165.09L1256.17 1011.99L1359.47 1055.28L1360.24 1053.43L1256.95 1010.14L1321.1 857.043L1424.4 900.331L1425.17 898.487L1321.88 855.199L1386.04 702.099L1489.33 745.387L1490.11 743.542L1386.81 700.254L1450.97 547.154L1554.26 590.442L1555.04 588.597L1451.74 545.309L1515.9 392.209L1619.2 435.497L1619.97 433.653L1516.67 390.365L1516.67 390.365L1514.83 389.592L1514.83 389.592L1361.73 325.433L1359.88 324.66L1206.78 260.501L1206.78 260.501L1204.94 259.728L1204.94 259.728L1051.84 195.569L1049.99 194.796L896.894 130.637L895.05 129.864L741.95 65.7049L740.105 64.9319L587.005 0.773039L585.161 6.13347e-05L585.161 6.7949e-05L585.16 3.96429e-05L195.569 929.668L194.796 931.513L151.508 1034.81L153.352 1035.58L196.64 932.286L349.74 996.444L306.452 1099.74L308.297 1100.51L351.585 997.217L504.685 1061.38L461.397 1164.67L463.242 1165.45L506.53 1062.15L659.63 1126.31L616.342 1229.6L618.186 1230.38L661.474 1127.08L814.574 1191.24ZM817.192 1190.17L970.292 1254.33L1034.45 1101.23L881.351 1037.07L817.192 1190.17ZM879.506 1036.3L815.347 1189.4L662.247 1125.24L726.406 972.137L879.506 1036.3ZM882.124 1035.22L1035.22 1099.38L1099.38 946.283L946.283 882.124L882.124 1035.22ZM944.438 881.351L880.279 1034.45L727.179 970.292L791.338 817.192L944.438 881.351ZM945.211 879.506L1009.37 726.406L856.27 662.247L792.111 815.348L945.211 879.506ZM947.056 880.279L1011.21 727.179L1164.31 791.338L1100.16 944.438L947.056 880.279ZM1102 945.211L1166.16 792.111L1319.26 856.27L1255.1 1009.37L1102 945.211ZM1101.23 947.056L1037.07 1100.16L1190.17 1164.31L1254.33 1011.21L1101.23 947.056ZM1189.4 1166.16L1036.3 1102L972.137 1255.1L1125.24 1319.26L1189.4 1166.16ZM1320.03 854.426L1384.19 701.326L1231.09 637.167L1166.93 790.267L1320.03 854.426ZM1165.09 789.494L1229.25 636.394L1076.15 572.235L1011.99 725.335L1165.09 789.494ZM1010.14 724.562L1074.3 571.462L921.202 507.303L857.043 660.403L1010.14 724.562ZM855.199 659.63L919.358 506.53L766.258 442.371L702.099 595.471L855.199 659.63ZM701.326 597.316L637.167 750.416L790.267 814.575L854.426 661.474L701.326 597.316ZM699.481 596.543L635.322 749.643L482.222 685.484L546.381 532.384L699.481 596.543ZM700.254 594.698L764.413 441.598L611.313 377.439L547.154 530.539L700.254 594.698ZM545.309 529.766L609.468 376.666L456.368 312.507L392.209 465.607L545.309 529.766ZM391.436 467.452L327.277 620.552L480.377 684.711L544.536 531.611L391.436 467.452ZM479.604 686.555L326.504 622.396L262.345 775.496L415.445 839.655L479.604 686.555ZM414.672 841.5L261.572 777.341L197.413 930.441L350.513 994.6L414.672 841.5ZM352.358 995.373L416.517 842.273L569.617 906.432L505.458 1059.53L352.358 995.373ZM507.303 1060.3L660.403 1124.46L724.562 971.364L571.462 907.205L507.303 1060.3ZM572.235 905.36L725.335 969.519L789.494 816.419L636.394 752.26L572.235 905.36ZM634.549 751.487L481.449 687.328L417.29 840.428L570.39 904.587L634.549 751.487ZM457.141 310.662L610.241 374.821L674.4 221.721L521.3 157.562L457.141 310.662ZM522.073 155.718L675.173 219.877L739.332 66.7765L586.232 2.61761L522.073 155.718ZM741.177 67.5495L677.018 220.65L830.118 284.809L894.277 131.709L741.177 67.5495ZM896.121 132.482L831.962 285.582L985.062 349.741L1049.22 196.64L896.121 132.482ZM1051.07 197.413L986.907 350.514L1140.01 414.673L1204.17 261.572L1051.07 197.413ZM1206.01 262.345L1141.85 415.446L1294.95 479.604L1359.11 326.504L1206.01 262.345ZM1360.96 327.277L1296.8 480.377L1449.9 544.536L1514.06 391.436L1360.96 327.277ZM1449.12 546.381L1296.02 482.222L1231.86 635.322L1384.96 699.481L1449.12 546.381ZM1230.02 634.549L1294.18 481.449L1141.08 417.29L1076.92 570.39L1230.02 634.549ZM1075.08 569.617L1139.23 416.517L986.134 352.358L921.975 505.458L1075.08 569.617ZM920.131 504.685L984.289 351.585L831.189 287.426L767.031 440.526L920.131 504.685ZM765.186 439.753L829.345 286.653L676.245 222.494L612.086 375.594L765.186 439.753ZM1824.72 519.455L1391.07 1554.26L1392.91 1555.04L1826.56 520.228L1824.72 519.455ZM1546.01 1619.2L1979.66 584.387L1981.51 585.16L1547.85 1619.97L1546.01 1619.2ZM130.637 1084.61L1165.45 1518.27L1164.67 1520.11L129.864 1086.46L130.637 1084.61ZM1100.51 1673.21L65.7051 1239.56L64.9321 1241.4L1099.74 1675.05L1100.51 1673.21ZM0.773075 1394.5L1035.58 1828.15L1034.81 1830L7.57575e-05 1396.35L0.773075 1394.5Z" fill="black"/>
</svg>
