<svg width="37" height="47" viewBox="0 0 37 47" fill="none" xmlns="http://www.w3.org/2000/svg">
<path d="M6.70509 23.4096C10.1508 26.5312 16.5836 29.3701 21.534 25.4133L24.4419 28.1335L29.6962 26.6472L24.9051 22.0747C25.587 21.2881 26.0925 20.3694 26.3854 19.3827C26.6786 18.3958 26.7524 17.3645 26.602 16.361L31.0392 20.6102L36.4669 19.0197L17.6989 1.30628L12.4229 2.94995L17.9073 8.14736C22.8536 12.8022 21.7075 16.8577 20.7438 18.0599L10.9031 8.87269L5.79977 10.4126L17.2769 21.3073C13.9795 24.4688 10.0616 20.6172 6.86262 17.9242L3.9989 15.4567L1.78849 18.7503L1.13293 41.7662L6.0127 46.2775C6.31938 38.4346 6.37251 31.2865 6.70509 23.4096Z" fill="#3BFFAD" stroke="black" stroke-linecap="round" stroke-linejoin="round"/>
</svg>
