<svg width="102" height="132" viewBox="0 0 102 132" fill="none" xmlns="http://www.w3.org/2000/svg">
<path d="M43.4404 84.5092C57.5872 81.2281 76.3142 69.8437 74.937 50.2753L87.0963 47.6576L92.6102 31.6628L72.343 35.8164C71.5322 32.6959 70.0685 29.7919 68.0522 27.3099C66.0359 24.8267 63.5158 22.8239 60.6687 21.441L79.4759 17.6197L85.0299 1L6.14795 17.6197L1 33.9469L24.1056 29.1273C44.8602 24.7234 53.25 34.7783 54.6285 39.3478L13.5265 48.2389L8.41865 63.9437L56.8177 53.89C59.0872 67.8497 42.2248 71.0486 29.6182 74.4555L18.1869 77.4055L22.7271 88.8297L80.7328 131L101 126.513C81.382 111.931 63.0998 99.217 43.4404 84.5092Z" fill="#FF426F" stroke="black" stroke-linecap="round" stroke-linejoin="round"/>
</svg>
