<svg width="366" height="215" viewBox="0 0 366 215" fill="none" xmlns="http://www.w3.org/2000/svg">
<path fill-rule="evenodd" clip-rule="evenodd" d="M51.7471 158.303L172.128 36.9164L15.013 102.909L13.0407 98.2136L170.294 32.1626H0V27.0698H170.285L12.793 -38.3661L14.7471 -43.0692L172.219 22.3584L51.7471 -99.1195L55.3632 -102.706L175.664 18.6001L110.238 -139.818L114.945 -141.762L180.435 16.8107V-155H185.528V16.6573L250.314 -142.006L255.029 -140.08L190.196 18.697L310.593 -102.706L314.21 -99.1195L193.81 22.2852L350.965 -43.7241L352.937 -39.0286L195.571 27.0698H366V32.1626H195.816L353.176 97.544L351.222 102.247L193.72 36.807L314.21 158.303L310.593 161.889L190.225 40.5152L255.679 199L250.972 200.945L185.528 42.4837V214.18H180.435V42.6021L115.658 201.242L110.944 199.317L175.825 40.4211L55.3632 161.889L51.7471 158.303Z" fill="white"/>
</svg>
