<svg width="366" height="370" viewBox="0 0 366 370" fill="none" xmlns="http://www.w3.org/2000/svg">
<path fill-rule="evenodd" clip-rule="evenodd" d="M51.7471 313.303L172.128 191.916L15.013 257.909L13.0407 253.214L170.294 187.163H0V182.07H170.285L12.793 116.634L14.7471 111.931L172.219 177.358L51.7471 55.8805L55.3632 52.2943L175.664 173.6L110.238 15.1819L114.945 13.2378L180.435 171.811V0H185.528V171.657L250.314 12.9943L255.029 14.9195L190.196 173.697L310.593 52.2943L314.21 55.8805L193.81 177.285L350.965 111.276L352.937 115.971L195.571 182.07H366V187.163H195.816L353.176 252.544L351.222 257.247L193.72 191.807L314.21 313.303L310.593 316.889L190.225 195.515L255.679 354L250.972 355.945L185.528 197.484V369.18H180.435V197.602L115.658 356.242L110.944 354.317L175.825 195.421L55.3632 316.889L51.7471 313.303Z" fill="white"/>
</svg>
